<svg height="512pt" viewBox="0 -23 512.00005 512" width="512pt" xmlns="http://www.w3.org/2000/svg"><path d="m145.773438 367.8125c10.34375-3.992188 18.691406-14.886719 18.8125-25.988281.140624-13.078125 10.859374-23.5625 23.933593-23.417969 13.074219.140625 23.558594 10.855469 23.417969 23.933594-.132812 12.292968-9.726562 26.796875-18.304688 35.175781-10.308593 10.0625-24.132812 16.316406-38.246093 18.710937-9.214844 1.5625-18.59375-3.25-19.242188-13.480468-.421875-6.683594 3.613281-12.621094 9.546875-14.90625 0 0 .078125-.027344.082032-.027344zm0 0" fill="#e8e8e8"/><path d="m366.230469 367.8125c-10.347657-3.992188-18.695313-14.886719-18.816407-25.988281-.140624-13.078125-10.859374-23.5625-23.933593-23.417969-13.074219.140625-23.558594 10.855469-23.417969 23.933594.132812 12.292968 9.726562 26.796875 18.308594 35.175781 10.304687 10.0625 24.128906 16.316406 38.242187 18.710937 9.214844 1.5625 18.59375-3.25 19.242188-13.480468.421875-6.683594-3.613281-12.621094-9.546875-14.90625.003906 0-.078125-.027344-.078125-.027344zm0 0" fill="#e8e8e8"/><path d="m167.296875 30.113281c-104.269531-62.101562-212.605469-16.550781-147.667969 118.253907 23.699219 53.550781-33.355468 180.277343 94.582032 131.996093zm0 0" fill="#77889a"/><path d="m167.296875 30.113281c-8.3125-4.949219-16.648437-9.214843-24.921875-12.804687-31.011719 27.386718-50.875 64.507812-56.324219 105.742187-1.371093 10.371094-3.585937 20.492188-6.585937 30.097657-5.472656 17.535156-8.289063 35.800781-8.371094 54.289062-.125 27.96875 6.246094 55.632812 18.300781 80.710938 7.382813-1.753907 15.621094-4.316407 24.816407-7.785157zm0 0" fill="#5f7080"/><path d="m344.703125 30.113281c104.269531-62.101562 212.605469-16.550781 147.667969 118.253907-23.699219 53.550781 33.355468 180.277343-94.582032 131.996093zm0 0" fill="#77889a"/><path d="m425.949219 123.058594c-5.449219-41.238282-25.308594-78.359375-56.324219-105.75-8.273438 3.589844-16.609375 7.855468-24.921875 12.804687l53.085937 250.25c9.292969 3.507813 17.601563 6.085938 25.042969 7.839844 11.894531-24.699219 18.074219-51.765625 18.074219-79.929687 0-19.285157-2.964844-38.304688-8.816406-56.542969-2.683594-8.34375-4.691406-17.722657-6.140625-28.671875zm0 0" fill="#5f7080"/><path d="m148.398438 61.84375c-21.777344-12.972656-49.039063-22.25-71.300782-22.25-12.519531 0-23.457031 2.933594-30.953125 9.796875-14.425781 13.207031-11.898437 44.214844 6.757813 82.945313l.257812.539062.242188.546875c10.453125 23.613281 10.144531 51.011719 9.847656 77.503906-.0625 5.738281.414062 15.695313.984375 24.617188.699219 10.859375 9.1875 19.589843 20.023437 20.578125 19.960938 1.820312 50.652344 3.613281 63.078126-1.078125zm0 0" fill="#ffbfc5"/><path d="m363.601562 61.84375c21.777344-12.972656 49.039063-22.25 71.300782-22.25 12.519531 0 23.457031 2.933594 30.953125 9.796875 14.425781 13.207031 11.898437 44.214844-6.757813 82.945313l-.261718.539062-.242188.546875c-10.449219 23.613281-10.140625 51.011719-9.84375 77.503906.0625 5.738281-.414062 15.695313-.988281 24.617188-.695313 10.859375-9.1875 19.589843-20.019531 20.578125-19.964844 1.820312-50.652344 3.613281-63.082032-1.078125zm0 0" fill="#ffbfc5"/><path d="m147.335938 255.042969 1.0625-193.199219c-10.03125-5.976562-21.230469-11.148438-32.5625-15.011719-15.835938 22.375-26.105469 48.359375-29.785157 76.21875-1.371093 10.371094-3.585937 20.492188-6.589843 30.097657-5.46875 17.535156-8.285157 35.800781-8.367188 54.289062-.070312 15.804688 1.933594 31.507812 5.863281 46.707031 2.25 1.046875 4.703125 1.738281 7.300781 1.972657 19.960938 1.824218 50.652344 3.613281 63.078126-1.074219zm0 0" fill="#ff8997"/><path d="m425.949219 123.058594c-3.679688-27.867188-13.949219-53.851563-29.785157-76.226563-11.332031 3.863281-22.53125 9.035157-32.5625 15.011719l1.0625 193.199219c12.429688 4.6875 43.117188 2.898437 63.078126 1.078125 2.675781-.246094 5.203124-.964844 7.507812-2.066406 3.746094-14.777344 5.660156-30.109376 5.660156-45.78125 0-19.285157-2.964844-38.304688-8.820312-56.542969-2.683594-8.34375-4.691406-17.722657-6.140625-28.671875zm0 0" fill="#ff8997"/><path d="m347.414062 341.824219c-.140624-13.078125-10.859374-23.5625-23.933593-23.417969-13.074219.140625-23.558594 10.855469-23.417969 23.933594.132812 12.292968 9.726562 26.796875 18.308594 35.175781 1.21875 1.191406 2.496094 2.328125 3.808594 3.414063 12.472656-4.804688 24.398437-10.960938 35.550781-18.320313-6.0625-5.273437-10.230469-12.972656-10.316407-20.785156zm0 0" fill="#d2d1d7"/><path d="m211.9375 342.339844c.140625-13.078125-10.34375-23.792969-23.417969-23.933594-13.078125-.144531-23.792969 10.339844-23.933593 23.417969-.085938 7.761719-4.199219 15.414062-10.199219 20.683593 11.144531 7.371094 23.058593 13.539063 35.511719 18.351563 1.285156-1.066406 2.535156-2.175781 3.734374-3.34375 8.578126-8.378906 18.171876-22.882813 18.304688-35.175781zm0 0" fill="#d2d1d7"/><path d="m415.152344 208.273438c0-16.972657-2.660156-33.324219-7.578125-48.65625-3.472657-10.796876-5.671875-21.949219-7.15625-33.1875-5.171875-39.136719-25.871094-73.375-55.714844-96.320313-9.128906-7.015625-19.113281-12.980469-29.765625-17.699219-18.023438-7.976562-37.960938-12.410156-58.9375-12.410156s-40.914062 4.433594-58.933594 12.410156c-10.65625 4.71875-20.636718 10.683594-29.769531 17.699219-29.839844 22.945313-50.542969 57.183594-55.714844 96.320313-1.539062 11.652343-4.023437 23.15625-7.535156 34.386718-4.605469 14.773438-7.125 30.46875-7.199219 46.738282-.332031 74.640624 51.378906 137.851562 120.828125 155.171874h-.003906s4.121094 44.492188-15.785156 71.003907c-6.675781 8.890625-4.453125 21.542969 5.039062 27.328125l3.566407 2.171875c9.496093 5.789062 21.746093 4.578125 29.785156-3.105469 38.03125-36.347656 54.230468-97.398438 54.230468-97.398438h-.003906c69.296875-17.222656 120.648438-79.835937 120.648438-154.453124zm0 0" fill="#a5b0bc"/><g fill="#333a41"><path d="m181.582031 301.425781c-4.269531 0-7.726562-3.460937-7.726562-7.726562v-16.238281c0-4.269532 3.457031-7.726563 7.726562-7.726563 4.265625 0 7.726563 3.457031 7.726563 7.726563v16.238281c0 4.265625-3.460938 7.726562-7.726563 7.726562zm0 0"/><path d="m330.417969 301.425781c-4.265625 0-7.726563-3.460937-7.726563-7.726562v-16.238281c0-4.269532 3.460938-7.726563 7.726563-7.726563s7.726562 3.457031 7.726562 7.726563v16.238281c0 4.265625-3.457031 7.726562-7.726562 7.726562zm0 0"/></g></svg>